<svg viewBox="0 0 246 71" fill="none" xmlns="http://www.w3.org/2000/svg"><path d="M11.3405 42.9426L6.99578 34.1188L25.2585 15.3681H40.7964L11.3405 42.9426ZM0 54.4136V0H11.7824V54.4136H0ZM26.5103 54.4136L12.7397 36.6189L21.061 30.1481L40.4282 54.4136H26.5103ZM45.8109 54.4136V0H57.5932V54.4136H45.8109ZM68.176 54.4136V0H79.9584V54.4136H68.176ZM104.182 55.0754C100.893 55.0754 97.947 54.2175 95.3451 52.5018C92.7922 50.737 90.7549 48.335 89.233 45.2956C87.7111 42.2073 86.9502 38.7268 86.9502 34.8541C86.9502 30.8834 87.7111 27.3784 89.233 24.339C90.7549 21.2997 92.8413 18.9222 95.4924 17.2064C98.1434 15.4417 101.163 14.5593 104.55 14.5593C106.416 14.5593 108.109 14.8289 109.631 15.3681C111.202 15.9074 112.577 16.6672 113.755 17.6476C114.933 18.579 115.94 19.682 116.774 20.9566C117.609 22.1821 118.223 23.5057 118.615 24.9273L116.185 24.6332V15.3681H127.894V54.4136H115.964V45.0015L118.615 44.928C118.223 46.3006 117.584 47.5996 116.701 48.8252C115.817 50.0507 114.737 51.1292 113.46 52.0606C112.184 52.992 110.76 53.7273 109.189 54.2665C107.618 54.8058 105.949 55.0754 104.182 55.0754ZM107.422 45.1486C109.238 45.1486 110.809 44.7319 112.135 43.8985C113.46 43.0652 114.491 41.8887 115.228 40.369C115.964 38.8003 116.332 36.962 116.332 34.8541C116.332 32.7462 115.964 30.9324 115.228 29.4127C114.491 27.8441 113.46 26.643 112.135 25.8097C110.809 24.9273 109.238 24.4861 107.422 24.4861C105.655 24.4861 104.108 24.9273 102.783 25.8097C101.506 26.643 100.5 27.8441 99.7635 29.4127C99.0271 30.9324 98.6589 32.7462 98.6589 34.8541C98.6589 36.962 99.0271 38.8003 99.7635 40.369C100.5 41.8887 101.506 43.0652 102.783 43.8985C104.108 44.7319 105.655 45.1486 107.422 45.1486ZM138.29 70.5906V15.3681H149.484L149.925 24.1184L147.716 23.4567C148.06 21.839 148.894 20.3683 150.22 19.0447C151.545 17.7212 153.215 16.6672 155.228 15.8829C157.29 15.0495 159.45 14.6329 161.708 14.6329C165.047 14.6329 168.017 15.5152 170.619 17.28C173.221 18.9957 175.258 21.3732 176.731 24.4126C178.253 27.4029 179.014 30.8834 179.014 34.8541C179.014 38.7758 178.253 42.2563 176.731 45.2956C175.258 48.335 173.196 50.737 170.545 52.5018C167.943 54.2175 164.948 55.0754 161.561 55.0754C159.352 55.0754 157.241 54.6587 155.228 53.8253C153.215 52.992 151.521 51.8645 150.146 50.4429C148.772 49.0213 147.863 47.4771 147.422 45.8104L150.146 44.7809V70.5906H138.29ZM158.689 45.1486C160.456 45.1486 162.003 44.7319 163.328 43.8985C164.654 43.0161 165.685 41.8151 166.421 40.2955C167.158 38.7758 167.526 36.962 167.526 34.8541C167.526 32.7952 167.158 31.0059 166.421 29.4863C165.685 27.9176 164.654 26.7166 163.328 25.8832C162.052 25.0008 160.506 24.5596 158.689 24.5596C156.873 24.5596 155.302 24.9763 153.976 25.8097C152.65 26.643 151.619 27.8441 150.883 29.4127C150.146 30.9814 149.778 32.7952 149.778 34.8541C149.778 36.962 150.146 38.7758 150.883 40.2955C151.619 41.8151 152.65 43.0161 153.976 43.8985C155.302 44.7319 156.873 45.1486 158.689 45.1486ZM186.832 70.5906V15.3681H198.025L198.467 24.1184L196.258 23.4567C196.601 21.839 197.436 20.3683 198.761 19.0447C200.087 17.7212 201.756 16.6672 203.769 15.8829C205.831 15.0495 207.991 14.6329 210.249 14.6329C213.588 14.6329 216.558 15.5152 219.16 17.28C221.762 18.9957 223.799 21.3732 225.272 24.4126C226.794 27.4029 227.555 30.8834 227.555 34.8541C227.555 38.7758 226.794 42.2563 225.272 45.2956C223.799 48.335 221.737 50.737 219.086 52.5018C216.484 54.2175 213.489 55.0754 210.102 55.0754C207.893 55.0754 205.782 54.6587 203.769 53.8253C201.756 52.992 200.062 51.8645 198.688 50.4429C197.313 49.0213 196.405 47.4771 195.963 45.8104L198.688 44.7809V70.5906H186.832ZM207.23 45.1486C208.997 45.1486 210.544 44.7319 211.869 43.8985C213.195 43.0161 214.226 41.8151 214.962 40.2955C215.699 38.7758 216.067 36.962 216.067 34.8541C216.067 32.7952 215.699 31.0059 214.962 29.4863C214.226 27.9176 213.195 26.7166 211.869 25.8832C210.593 25.0008 209.046 24.5596 207.23 24.5596C205.414 24.5596 203.843 24.9763 202.517 25.8097C201.191 26.643 200.161 27.8441 199.424 29.4127C198.688 30.9814 198.32 32.7952 198.32 34.8541C198.32 36.962 198.688 38.7758 199.424 40.2955C200.161 41.8151 201.191 43.0161 202.517 43.8985C203.843 44.7319 205.414 45.1486 207.23 45.1486ZM239.572 55.2224C237.559 55.2224 235.988 54.6587 234.859 53.5312C233.779 52.4037 233.239 50.786 233.239 48.6781C233.239 46.7172 233.828 45.1241 235.006 43.8985C236.184 42.673 237.706 42.0602 239.572 42.0602C241.584 42.0602 243.155 42.6485 244.285 43.825C245.414 44.9525 245.978 46.5702 245.978 48.6781C245.978 50.5899 245.389 52.1586 244.211 53.3841C243.033 54.6097 241.486 55.2224 239.572 55.2224Z" fill="#111827"/></svg>
